<?xml version="1.0" standalone="no"?>
<!DOCTYPE svg PUBLIC "-//W3C//DTD SVG 20010904//EN"
 "http://www.w3.org/TR/2001/REC-SVG-20010904/DTD/svg10.dtd">
<svg version="1.0" xmlns="http://www.w3.org/2000/svg"
 width="980.000000pt" height="1000.000000pt" viewBox="0 0 980.000000 1000.000000"
 preserveAspectRatio="xMidYMid meet">

<g transform="translate(0.000000,1000.000000) scale(0.100000,-0.100000)"
fill="#000000" stroke="none">
<path d="M4783 9976 c-138 -35 -91 8 -1158 -1065 -1645 -1657 -1587 -1597
-1619 -1669 -104 -236 10 -500 251 -583 52 -18 87 -19 500 -19 l445 0 -2
-1817 c-2 -1308 1 -1831 9 -1865 56 -236 234 -419 467 -478 75 -19 113 -20
1229 -20 1114 0 1154 1 1229 20 180 46 335 170 413 331 23 46 47 109 55 139
11 45 12 374 9 1872 l-4 1817 464 3 464 3 66 32 c79 39 169 130 204 205 55
122 52 250 -10 373 -32 65 -121 157 -1306 1350 -699 704 -1289 1292 -1311
1307 -99 67 -273 95 -395 64z"/>
<path d="M492 5755 c-171 -37 -341 -173 -421 -335 -77 -157 -72 -6 -68 -2148
3 -1912 3 -1917 24 -2014 68 -306 200 -560 402 -771 220 -230 486 -378 810
-450 l96 -21 3495 -4 c2495 -2 3524 0 3595 8 506 56 960 367 1194 820 70 136
122 280 153 427 l23 108 3 1900 c3 2110 7 1986 -63 2130 -129 266 -421 410
-710 350 -38 -8 -108 -33 -155 -56 -115 -57 -231 -170 -283 -279 -78 -160 -71
25 -77 -2075 -5 -1729 -6 -1882 -22 -1910 -24 -43 -76 -93 -122 -118 l-41 -22
-3430 0 c-3244 0 -3432 1 -3467 17 -53 25 -106 74 -131 122 l-22 41 -5 1875
c-6 2106 1 1923 -82 2084 -129 248 -417 381 -696 321z"/>
</g>
</svg>
